<svg width="24" height="24" viewBox="0 0 24 24" fill="none" xmlns="http://www.w3.org/2000/svg">
<g id="Iconly/Broken/Close Square">
<g id="Close Square">
<path id="Close Square_2" fill-rule="evenodd" clip-rule="evenodd" d="M21.2442 11.5779C21.6612 11.5779 22.0002 11.2389 22.0002 10.8219V8.25291C22.0002 4.39191 19.5902 1.99991 15.7532 1.99991H8.2532C4.3922 1.99991 2.0002 4.39191 2.0002 8.25591V15.7559C2.0002 19.6079 4.3922 21.9999 8.2532 21.9999H15.7562C19.6082 21.9999 22.0002 19.6079 21.9972 15.7529C21.9972 15.3309 21.6542 14.9879 21.2322 14.9879C20.8092 14.9879 20.4672 15.3309 20.4672 15.7529C20.4672 18.7869 18.7962 20.4669 15.7532 20.4669H8.2532C5.2102 20.4669 3.5302 18.7869 3.5302 15.7529V8.25291C3.5302 5.20991 5.2102 3.52991 8.2562 3.52991H15.7562C18.8002 3.52991 20.4702 5.19991 20.4702 8.25291V10.7949V10.7969C20.4712 11.2189 20.8132 11.5599 21.2352 11.5599V11.5779H21.2442ZM9.815 13.1453L9.131 13.8293C8.826 14.1193 8.809 14.6003 9.093 14.9113L9.115 14.9273C9.407 15.2193 9.877 15.2273 10.178 14.9453L10.859 14.2643C11.168 13.9763 11.185 13.4923 10.897 13.1823C10.608 12.8743 10.124 12.8563 9.815 13.1453ZM15.1428 14.8032C14.8488 15.0962 14.3738 15.1022 14.0728 14.8152L14.0348 14.7782L9.2548 9.99921C8.9628 9.68921 8.9568 9.20721 9.2418 8.89121C9.5338 8.59221 10.0118 8.58621 10.3108 8.87821C10.3138 8.88021 10.3158 8.88221 10.3188 8.88521L12.1838 10.7512L13.8808 9.05321C14.1858 8.76221 14.6668 8.76521 14.9688 9.06021C15.0228 9.11421 15.0688 9.17521 15.1038 9.24321C15.2768 9.54421 15.2268 9.92221 14.9818 10.1682L13.2918 11.8572L15.1298 13.6962C15.4398 13.9892 15.4518 14.4782 15.1578 14.7872C15.1555 14.7906 15.1526 14.7934 15.1496 14.7962C15.1473 14.7984 15.145 14.8006 15.1428 14.8032Z" fill="#130F26"/>
</g>
</g>
</svg>
