<svg width="24" height="24" viewBox="0 0 24 24" fill="none" xmlns="http://www.w3.org/2000/svg">
<g id="Iconly/Broken/Info Circle">
<g id="Info Circle">
<path id="Info Circle_2" fill-rule="evenodd" clip-rule="evenodd" d="M1.99989 11.9998C1.99989 6.48479 6.48589 1.99979 11.9999 1.99979C17.5139 1.99979 21.9999 6.48479 21.9999 11.9998C21.9999 17.5138 17.5139 21.9998 11.9999 21.9998C8.87289 21.9998 5.98289 20.5768 4.07289 18.0978C3.82789 17.7788 3.88689 17.3218 4.20589 17.0778C4.52289 16.8318 4.97889 16.8928 5.22489 17.2098C6.85789 19.3298 9.32689 20.5458 11.9999 20.5458C16.7119 20.5458 20.5459 16.7128 20.5459 11.9998C20.5459 7.28779 16.7119 3.45379 11.9999 3.45379C7.28789 3.45379 3.45389 7.28779 3.45389 11.9998C3.45389 12.4378 3.48689 12.8728 3.55189 13.2988C3.61189 13.6948 3.33989 14.0658 2.94289 14.1268C2.54389 14.1928 2.17489 13.9158 2.11489 13.5188C2.03889 13.0208 1.99989 12.5098 1.99989 11.9998ZM11.9999 7.45389C11.5859 7.45389 11.2499 7.78989 11.2499 8.20389V12.6239C11.2499 13.0379 11.5859 13.3739 11.9999 13.3739C12.4139 13.3739 12.7499 13.0379 12.7499 12.6239V8.20389C12.7499 7.78989 12.4139 7.45389 11.9999 7.45389ZM12.0101 15.0457H12.0001C11.5861 15.0457 11.2551 15.3817 11.2551 15.7957C11.2551 16.2097 11.5961 16.5457 12.0101 16.5457C12.4241 16.5457 12.7601 16.2097 12.7601 15.7957C12.7601 15.3817 12.4241 15.0457 12.0101 15.0457Z" fill="#130F26"/>
</g>
</g>
</svg>
