<svg width="24" height="24" viewBox="0 0 24 24" fill="none" xmlns="http://www.w3.org/2000/svg">
<g id="Iconly/Broken/More Circle">
<g id="More Circle">
<path id="More Circle_2" fill-rule="evenodd" clip-rule="evenodd" d="M2.00021 11.9998C2.00021 6.48479 6.48621 1.99979 12.0002 1.99979C17.5142 1.99979 22.0002 6.48479 22.0002 11.9998C22.0002 17.5138 17.5142 21.9998 12.0002 21.9998C8.87221 21.9998 5.98321 20.5768 4.07321 18.0978C3.82821 17.7788 3.88721 17.3218 4.20521 17.0778C4.52321 16.8318 4.97921 16.8928 5.22521 17.2098C6.85721 19.3298 9.32721 20.5458 12.0002 20.5458C16.7122 20.5458 20.5452 16.7128 20.5452 11.9998C20.5452 7.28779 16.7122 3.45379 12.0002 3.45379C7.28821 3.45379 3.45421 7.28779 3.45421 11.9998C3.45421 12.4378 3.48721 12.8728 3.55221 13.2988C3.61221 13.6948 3.33921 14.0658 2.94321 14.1268C2.54421 14.1928 2.17521 13.9158 2.11421 13.5188C2.03821 13.0208 2.00021 12.5098 2.00021 11.9998ZM7.52041 10.8038C8.18141 10.8038 8.71841 11.3408 8.71841 11.9998C8.71841 12.6598 8.18141 13.1968 7.52041 13.1968C6.86041 13.1968 6.32241 12.6598 6.32241 11.9998C6.32241 11.3408 6.86041 10.8038 7.52041 10.8038ZM11.9999 10.8038C12.6599 10.8038 13.1979 11.3408 13.1979 11.9998C13.1979 12.6598 12.6599 13.1968 11.9999 13.1968C11.3389 13.1968 10.8019 12.6598 10.8019 11.9998C10.8019 11.3408 11.3389 10.8038 11.9999 10.8038ZM17.6769 11.9998C17.6769 11.3408 17.1399 10.8038 16.4789 10.8038C15.8189 10.8038 15.2809 11.3408 15.2809 11.9998C15.2809 12.6598 15.8189 13.1968 16.4789 13.1968C17.1399 13.1968 17.6769 12.6598 17.6769 11.9998Z" fill="#130F26"/>
</g>
</g>
</svg>
