<svg width="24" height="24" viewBox="0 0 24 24" fill="none" xmlns="http://www.w3.org/2000/svg">
<g id="Iconly/Broken/More Square">
<g id="More Square">
<path id="More Square_2" fill-rule="evenodd" clip-rule="evenodd" d="M8.25379 1.99979H15.7468C19.6078 1.99979 21.9998 4.39279 21.9998 8.25579V15.7558C21.9998 19.6078 19.6078 21.9998 15.7468 21.9998H8.24379C4.39179 21.9998 1.99979 19.6078 2.00079 15.7528C2.00079 15.3308 2.34379 14.9878 2.76579 14.9878C3.18879 14.9878 3.53079 15.3308 3.53079 15.7528C3.53079 18.7868 5.20179 20.4668 8.25379 20.4668H15.7468C18.7898 20.4668 20.4698 18.7958 20.4698 15.7528V8.25279C20.4698 5.20979 18.7998 3.52979 15.7468 3.52979H8.25279C5.20979 3.52979 3.52979 5.20979 3.52979 8.25279V10.5658V10.5838C3.52979 11.0018 3.19179 11.3398 2.77379 11.3398H2.76479H2.76279C2.34079 11.3398 1.99879 10.9968 1.99979 10.5748V8.25279C1.99979 4.39279 4.40979 1.99979 8.25379 1.99979ZM7.52049 10.8038C8.18149 10.8038 8.71849 11.3408 8.71849 11.9998C8.71849 12.6598 8.18149 13.1968 7.52049 13.1968C6.86049 13.1968 6.32249 12.6598 6.32249 11.9998C6.32249 11.3408 6.86049 10.8038 7.52049 10.8038ZM12 10.8038C12.661 10.8038 13.198 11.3408 13.198 11.9998C13.198 12.6598 12.661 13.1968 12 13.1968C11.34 13.1968 10.802 12.6598 10.802 11.9998C10.802 11.3408 11.34 10.8038 12 10.8038ZM17.677 11.9998C17.677 11.3408 17.14 10.8038 16.479 10.8038C15.819 10.8038 15.281 11.3408 15.281 11.9998C15.281 12.6598 15.819 13.1968 16.479 13.1968C17.14 13.1968 17.677 12.6598 17.677 11.9998Z" fill="#130F26"/>
</g>
</g>
</svg>
