<svg width="24" height="24" viewBox="0 0 24 24" fill="none" xmlns="http://www.w3.org/2000/svg">
<g id="Iconly/Broken/Play">
<g id="Play">
<path id="Play_2" fill-rule="evenodd" clip-rule="evenodd" d="M2.00012 11.9998C2.00012 6.48479 6.48612 1.99979 12.0001 1.99979C17.5141 1.99979 22.0001 6.48479 22.0001 11.9998C22.0001 17.5138 17.5141 21.9998 12.0001 21.9998C10.6051 21.9998 9.25512 21.7188 7.98712 21.1618C7.62112 21.0018 7.45512 20.5748 7.61512 20.2088C7.77512 19.8408 8.20112 19.6758 8.56912 19.8368C9.65212 20.3118 10.8061 20.5528 12.0001 20.5528C16.7151 20.5528 20.5521 16.7148 20.5521 11.9998C20.5521 7.28379 16.7151 3.44779 12.0001 3.44779C7.28412 3.44779 3.44812 7.28379 3.44812 11.9998C3.44812 13.8468 4.02612 15.6038 5.12212 17.0838C5.35912 17.4048 5.29212 17.8578 4.97112 18.0958C4.64912 18.3348 4.19612 18.2688 3.95812 17.9448C2.67712 16.2158 2.00012 14.1598 2.00012 11.9998ZM10.82 15.9692H10.856C11.149 15.9622 11.755 15.7102 11.761 15.7072C12.779 15.2782 14.794 13.9542 15.608 13.0782L15.657 13.0262C15.757 12.9202 15.906 12.7552 15.941 12.7082C16.091 12.5012 16.171 12.2552 16.171 12.0002C16.171 11.7312 16.08 11.4662 15.913 11.2532C15.886 11.2192 15.77 11.0932 15.676 10.9942L15.597 10.9092C14.805 10.0642 12.743 8.67319 11.66 8.25319C11.495 8.18819 11.087 8.03619 10.864 8.03019C10.652 8.02719 10.447 8.07219 10.251 8.17519C10.008 8.30719 9.81597 8.51919 9.71397 8.76619C9.63897 8.94219 9.53897 9.46519 9.53797 9.47319C9.43297 10.0522 9.37297 10.9732 9.37497 11.9992C9.37297 12.9692 9.42697 13.8582 9.52197 14.4362C9.52297 14.4422 9.63597 15.0892 9.75397 15.3182C9.95997 15.7162 10.378 15.9692 10.82 15.9692ZM10.962 9.73319C10.97 9.68719 10.984 9.61919 10.999 9.55019C11.053 9.57019 11.101 9.58819 11.132 9.60019C11.999 9.93719 13.91 11.2252 14.537 11.8962L14.621 11.9852C14.6229 11.9871 14.6246 11.9889 14.6263 11.9908C14.6269 11.9914 14.6274 11.9921 14.628 11.9927C14.6291 11.994 14.6303 11.9953 14.6315 11.9966C14.6326 11.9978 14.6338 11.999 14.635 12.0002C14.624 12.0102 14.614 12.0212 14.605 12.0312C14.604 12.0332 14.552 12.0922 14.547 12.0912C13.94 12.7472 12.126 13.9822 11.2 14.3722C11.1761 14.3819 11.1454 14.3938 11.1118 14.4067L11.1117 14.4068C11.0764 14.4204 11.0379 14.4353 11.001 14.4502C10.98 14.3582 10.961 14.2632 10.951 14.2012C10.869 13.7062 10.821 12.8822 10.822 11.9992C10.821 11.0832 10.875 10.2142 10.962 9.73319Z" fill="#130F26"/>
</g>
</g>
</svg>
