<svg width="24" height="24" viewBox="0 0 24 24" fill="none" xmlns="http://www.w3.org/2000/svg">
<g id="Iconly/Broken/Star">
<g id="Star">
<path id="Star_2" d="M17.4979 21.9194C17.3749 21.9224 17.2529 21.8914 17.1459 21.8294L12.0079 19.1234L7.48387 21.5594C6.74587 21.9594 5.82187 21.6854 5.42187 20.9464C5.41687 20.9374 5.41187 20.9284 5.40687 20.9184C5.24987 20.6094 5.19487 20.2604 5.24887 19.9184L6.12887 14.7244L2.45087 11.0004C1.84987 10.3804 1.84987 9.39441 2.45087 8.77341C2.68487 8.52741 2.99487 8.36841 3.33087 8.32241L8.37387 7.55641L10.6169 2.88341C10.9659 2.12341 11.8649 1.78941 12.6259 2.13841C12.9559 2.28941 13.2199 2.55441 13.3709 2.88341L15.6239 7.57241L20.6839 8.34741C21.0929 8.40841 21.4599 8.63441 21.6999 8.97141C22.1479 9.61541 22.0799 10.4854 21.5379 11.0524L17.8769 14.7324L18.3869 17.5314C18.4579 17.9514 18.1809 18.3524 17.7619 18.4314C17.3499 18.5054 16.9559 18.2314 16.8819 17.8184L16.3629 15.0194C16.2759 14.5064 16.4389 13.9824 16.8029 13.6114L20.4729 9.90541L15.4129 9.12041C14.8999 9.03741 14.4649 8.69741 14.2599 8.22041L12.0079 3.55141L9.72787 8.29441C9.52287 8.77241 9.08787 9.11141 8.57487 9.19441L3.53187 9.96041L7.17487 13.6604C7.53787 14.0254 7.70087 14.5424 7.61487 15.0494L6.73487 20.2434L11.2579 17.8174C11.7059 17.5654 12.2529 17.5654 12.7009 17.8174L17.8319 20.5234C18.1449 20.6944 18.3039 21.0554 18.2189 21.4024C18.1409 21.7494 17.8349 21.9964 17.4799 22.0024L17.4979 21.9194Z" fill="#130F26"/>
</g>
</g>
</svg>
