<svg width="24" height="24" viewBox="0 0 24 24" fill="none" xmlns="http://www.w3.org/2000/svg">
<g id="Iconly/Broken/Tick Square">
<g id="Tick Square">
<path id="Tick Square_2" fill-rule="evenodd" clip-rule="evenodd" d="M22.0001 10.8219C22.0001 11.2389 21.6611 11.5779 21.2441 11.5779H21.2351V11.5599C20.8131 11.5599 20.4711 11.2189 20.4701 10.7969V10.7949V8.25291C20.4701 5.19991 18.8001 3.52991 15.7561 3.52991H8.2561C5.2101 3.52991 3.5301 5.20991 3.5301 8.25291V15.7529C3.5301 18.7869 5.2101 20.4669 8.2531 20.4669H15.7531C18.7961 20.4669 20.4671 18.7869 20.4671 15.7529C20.4671 15.3309 20.8091 14.9879 21.2321 14.9879C21.6551 14.9879 21.9971 15.3309 21.9971 15.7529C22.0001 19.6079 19.6081 21.9999 15.7561 21.9999H8.2531C4.3921 21.9999 2.0001 19.6079 2.0001 15.7559V8.25591C2.0001 4.39191 4.3921 1.99991 8.2531 1.99991H15.7531C19.5901 1.99991 22.0001 4.39191 22.0001 8.25291V10.8219ZM10.8137 13.3134L15.0297 9.09641C15.3227 8.80341 15.7977 8.80341 16.0907 9.09641C16.3837 9.38941 16.3837 9.86441 16.0907 10.1574L11.3437 14.9044C11.2027 15.0444 11.0117 15.1234 10.8137 15.1234C10.6137 15.1234 10.4237 15.0444 10.2827 14.9044L7.9097 12.5304C7.6167 12.2374 7.6167 11.7624 7.9097 11.4694C8.2027 11.1764 8.6777 11.1764 8.9707 11.4694L10.8137 13.3134Z" fill="#130F26"/>
</g>
</g>
</svg>
