<svg width="24" height="24" viewBox="0 0 24 24" fill="none" xmlns="http://www.w3.org/2000/svg">
<g id="Iconly/Broken/Time Circle">
<g id="Time Circle">
<path id="Time Circle_2" fill-rule="evenodd" clip-rule="evenodd" d="M1.99982 11.9998C1.99982 6.48479 6.48582 1.99979 11.9998 1.99979C17.5138 1.99979 21.9998 6.48479 21.9998 11.9998C21.9998 17.5138 17.5138 21.9998 11.9998 21.9998C8.87282 21.9998 5.98282 20.5768 4.07282 18.0978C3.82782 17.7788 3.88782 17.3218 4.20582 17.0778C4.52382 16.8318 4.97882 16.8928 5.22482 17.2098C6.85782 19.3298 9.32682 20.5458 11.9998 20.5458C16.7118 20.5458 20.5458 16.7128 20.5458 11.9998C20.5458 7.28779 16.7118 3.45379 11.9998 3.45379C7.28782 3.45379 3.45482 7.28779 3.45482 11.9998C3.45482 12.4378 3.48682 12.8728 3.55182 13.2988C3.61182 13.6948 3.33982 14.0658 2.94282 14.1268C2.54382 14.1928 2.17482 13.9158 2.11482 13.5188C2.03882 13.0208 1.99982 12.5098 1.99982 11.9998ZM10.9339 7.83719C10.9339 7.43519 11.2599 7.10919 11.6609 7.10919C12.0619 7.10919 12.3879 7.43519 12.3879 7.83719V12.2832L15.8119 14.3252C16.1569 14.5312 16.2699 14.9772 16.0639 15.3222C15.9289 15.5492 15.6869 15.6762 15.4399 15.6762C15.3129 15.6762 15.1839 15.6432 15.0679 15.5742L11.2879 13.3202C11.0689 13.1882 10.9339 12.9512 10.9339 12.6952V7.83719Z" fill="#130F26"/>
</g>
</g>
</svg>
